<svg xmlns="http://www.w3.org/2000/svg" xmlns:xlink="http://www.w3.org/1999/xlink" width="100" zoomAndPan="magnify" viewBox="0 0 75 74.999997" height="100" preserveAspectRatio="xMidYMid meet" version="1.2"><defs><clipPath id="7847011528"><path d="M 1.5 9.003906 L 27.375 9.003906 L 27.375 34.878906 L 1.5 34.878906 Z M 1.5 9.003906 "/></clipPath><clipPath id="d88e6fbc60"><path d="M 14.4375 9.003906 C 7.292969 9.003906 1.5 14.792969 1.5 21.941406 C 1.5 29.085938 7.292969 34.878906 14.4375 34.878906 C 21.582031 34.878906 27.375 29.085938 27.375 21.941406 C 27.375 14.792969 21.582031 9.003906 14.4375 9.003906 Z M 14.4375 9.003906 "/></clipPath><clipPath id="5613d7d598"><path d="M 47.625 38.09375 L 73.5 38.09375 L 73.5 63.96875 L 47.625 63.96875 Z M 47.625 38.09375 "/></clipPath><clipPath id="7e84995ad2"><path d="M 60.5625 38.09375 C 53.417969 38.09375 47.625 43.886719 47.625 51.03125 C 47.625 58.175781 53.417969 63.96875 60.5625 63.96875 C 67.707031 63.96875 73.5 58.175781 73.5 51.03125 C 73.5 43.886719 67.707031 38.09375 60.5625 38.09375 Z M 60.5625 38.09375 "/></clipPath></defs><g id="d46f380cc6"><path style="fill:none;stroke-width:6;stroke-linecap:round;stroke-linejoin:miter;stroke:#d3d3d3;stroke-opacity:1;stroke-miterlimit:4;" d="M 3.0965 2.998444 C 13.497056 2.997993 23.891587 3.001878 34.286962 3.000583 " transform="matrix(0.734641,-0.119778,0.119778,0.734641,24.537908,18.968894)"/><path style="fill:none;stroke-width:6;stroke-linecap:round;stroke-linejoin:miter;stroke:#d3d3d3;stroke-opacity:1;stroke-miterlimit:4;" d="M 3.100759 3.000399 C 28.018927 3.001609 52.941333 2.999792 77.86374 2.997975 " transform="matrix(0.435929,-0.6103,0.6103,0.435929,15.418709,63.381308)"/><path style="fill:none;stroke-width:6;stroke-linecap:round;stroke-linejoin:miter;stroke:#d3d3d3;stroke-opacity:1;stroke-miterlimit:4;" d="M 2.999416 2.998281 C 16.600718 2.998683 30.20202 2.999084 43.803322 2.999486 " transform="matrix(0.719422,-0.211972,0.211972,0.719422,16.226133,61.060796)"/><g clip-rule="nonzero" clip-path="url(#7847011528)"><g clip-rule="nonzero" clip-path="url(#d88e6fbc60)"><path style=" stroke:none;fill-rule:nonzero;fill:#925cfa;fill-opacity:1;" d="M 1.5 9.003906 L 27.375 9.003906 L 27.375 34.878906 L 1.5 34.878906 Z M 1.5 9.003906 "/></g></g><g clip-rule="nonzero" clip-path="url(#5613d7d598)"><g clip-rule="nonzero" clip-path="url(#7e84995ad2)"><path style=" stroke:none;fill-rule:nonzero;fill:#fe8008;fill-opacity:1;" d="M 47.625 38.09375 L 73.5 38.09375 L 73.5 63.96875 L 47.625 63.96875 Z M 47.625 38.09375 "/></g></g></g></svg>